<?xml version="1.0" encoding="UTF-8"?>
<svg version="1.1" xmlns="http://www.w3.org/2000/svg" width="1080" height="1080">
<path d="M0 0 C356.4 0 712.8 0 1080 0 C1080 356.4 1080 712.8 1080 1080 C723.6 1080 367.2 1080 0 1080 C0 723.6 0 367.2 0 0 Z " fill="#4F6F52" transform="translate(0,0)"/>
<path d="M0 0 C1.50820313 0.02513672 1.50820313 0.02513672 3.046875 0.05078125 C28.08421394 1.37851892 52.04254864 16.18597317 68.49462891 34.27148438 C73.08304853 39.54005572 77.05325162 45.24463972 81 51 C81.58040039 51.84304687 82.16080078 52.68609375 82.75878906 53.5546875 C86.61348996 59.16298604 90.43858231 64.79097602 94.25439453 70.42578125 C96.636277 73.93830834 99.03284895 77.44053119 101.4375 80.9375 C101.86579102 81.56052002 102.29408203 82.18354004 102.73535156 82.82543945 C106.71754887 88.60775842 110.73549071 94.36509352 114.75 100.125 C121.40721604 109.67823946 127.98661533 119.2822005 134.53515625 128.91015625 C138.89631778 135.32193808 143.29090487 141.71051677 147.68945312 148.09667969 C149.49934686 150.72520642 151.3072156 153.35512299 153.11499023 155.98510742 C154.03884291 157.3291152 154.96283396 158.67302787 155.88696289 160.0168457 C158.11801471 163.26118823 160.34777126 166.50640196 162.57421875 169.75390625 C167.93377249 177.56706127 173.33168193 185.35247139 178.75 193.125 C185.40731212 202.67817169 191.98661614 212.28220169 198.53515625 221.91015625 C202.89631778 228.32193808 207.29090487 234.71051677 211.68945312 241.09667969 C213.96155061 244.39646956 216.23057913 247.69836901 218.5 251 C219.41665286 252.33334282 220.33331951 253.66667617 221.25 255 C237.75 279 237.75 279 239.12695312 281.00292969 C240.0369987 282.3265735 240.94715365 283.65014211 241.85742188 284.97363281 C244.2513272 288.4545841 246.64291226 291.93710087 249.03125 295.421875 C249.52818359 296.14632813 250.02511719 296.87078125 250.53710938 297.6171875 C251.4870321 299.00212157 252.4362897 300.38751218 253.38476562 301.7734375 C255.52926167 304.89855018 257.69120715 307.99249353 260 311 C265.824284 303.16291197 271.55310344 295.30655648 276.91796875 287.14453125 C279.34167533 283.48396127 281.82118823 279.86475072 284.3125 276.25 C284.77785156 275.57461182 285.24320313 274.89922363 285.72265625 274.20336914 C286.67376538 272.823575 287.62510155 271.44393733 288.57666016 270.06445312 C290.88797041 266.71206213 293.19375882 263.35587922 295.5 260 C296.41663902 258.66664766 297.33330572 257.33331435 298.25 256 C298.930625 255.01 298.930625 255.01 299.625 254 C323 220 346.375 186 369.75 152 C370.20334717 151.34056396 370.65669434 150.68112793 371.1237793 150.00170898 C372.04443216 148.66262209 372.96516841 147.32359253 373.88598633 145.98461914 C376.11733692 142.73976998 378.34743948 139.49408198 380.57421875 136.24609375 C385.93377221 128.43293914 391.3316296 120.64749182 396.75 112.875 C402.04386149 105.27935077 407.29577032 97.65732777 412.5 90 C419.63788092 79.50111927 426.86713462 69.06801998 434.14257812 58.6640625 C435.89047142 56.15709462 437.62658025 53.64241746 439.359375 51.125 C456.45658418 26.39353954 476.9718649 9.43301088 506.21484375 1.5078125 C535.41653051 -3.81647821 564.11351341 2.19906662 588.71484375 18.8359375 C591.25778678 20.78951124 593.63212915 22.83707624 596 25 C596.50772949 25.46003418 597.01545898 25.92006836 597.53857422 26.39404297 C605.91935868 34.07829444 612.43051502 42.09715705 618 52 C618.63679687 53.10988281 619.27359375 54.21976563 619.9296875 55.36328125 C628.01822322 70.41212345 631.16601946 86.21654616 631.13422108 103.19914722 C631.13657331 104.07221822 631.13892554 104.94528921 631.14134905 105.84481689 C631.14797773 108.75477782 631.14758269 111.66469346 631.14717102 114.57466125 C631.15047346 116.68847333 631.15419983 118.80228478 631.1583125 120.91609544 C631.16829719 126.71336893 631.17204358 132.51063207 631.17470181 138.30791295 C631.17861532 144.56518879 631.18819283 150.82245653 631.19691467 157.07972717 C631.21571605 171.47074321 631.22593022 185.86175737 631.23437535 200.25278244 C631.23858844 207.37172853 631.24380953 214.4906738 631.24905988 221.60961919 C631.2669463 246.00144163 631.2819401 270.39326433 631.28938007 294.78509235 C631.28985482 296.31511071 631.29033071 297.84512906 631.29080774 299.37514741 C631.2911623 300.5132165 631.2911623 300.5132165 631.29152403 301.67427687 C631.29272516 305.51795868 631.29394063 309.36164047 631.29516602 313.20532227 C631.29540617 313.96809661 631.29564632 314.73087095 631.29589374 315.51675966 C631.30378205 340.23309686 631.32720616 364.94938599 631.35972196 389.66570221 C631.39407485 415.82643853 631.41373624 441.98714676 631.41702431 468.14790601 C631.41744182 471.02374122 631.41792137 473.89957641 631.41844749 476.77541161 C631.41857069 477.48347007 631.41869388 478.19152853 631.4188208 478.9210433 C631.42114597 490.28079224 631.4367675 501.64048502 631.45728934 513.000214 C631.47761692 524.4344587 631.48266046 535.86861162 631.47351871 547.30287573 C631.46898672 553.48875446 631.47079622 559.67445212 631.49028015 565.86030579 C631.50800305 571.53635552 631.50684048 577.21209331 631.49138286 582.88814678 C631.4890206 584.92858868 631.49325746 586.96905271 631.50521151 589.00946096 C631.66935517 618.90724542 624.69320847 644.3173794 606 668 C605.53207031 668.63550781 605.06414063 669.27101563 604.58203125 669.92578125 C591.01387185 687.41826983 566.10173468 699.2983838 544.77294922 702.67041016 C524.28092403 705.10607084 503.60581591 703.29096584 485 694 C484.40010254 693.70528809 483.80020508 693.41057617 483.18212891 693.10693359 C458.5085977 680.79186037 440.34912667 660.18290379 431.28515625 634.08984375 C426.18826245 618.48778848 425.85463988 602.37481181 425.79467773 586.12402344 C425.78507774 584.45724761 425.77506649 582.79047411 425.76467896 581.123703 C425.73785332 576.63490237 425.71672412 572.14609146 425.69667697 567.65725613 C425.6746781 562.95273955 425.64735799 558.24825381 425.62062073 553.54376221 C425.57088048 544.65122941 425.52587309 535.75867931 425.48259836 526.86611295 C425.43306554 516.73541451 425.37820737 506.60474706 425.32291877 496.47407866 C425.20938563 475.64941468 425.10248515 454.82472108 425 434 C422.77810774 437.17019613 420.55696087 440.34091383 418.3359375 443.51171875 C417.71323975 444.40016479 417.09054199 445.28861084 416.44897461 446.20397949 C412.81670828 451.39037944 409.20326157 456.58869448 405.625 461.8125 C401.15524959 468.33373715 396.64537737 474.82625434 392.125 481.3125 C386.69125849 489.11131479 381.29468524 496.93362987 375.94067383 504.78735352 C370.92820577 512.12965811 365.83851692 519.41745662 360.74804688 526.70581055 C356.92329271 532.19436995 353.17118929 537.72034801 349.5 543.3125 C334.1784242 566.47403609 315.29713319 582.28095462 288.6875 590.8125 C288.04176025 591.01979736 287.39602051 591.22709473 286.73071289 591.44067383 C277.77801822 594.15892701 269.02553728 594.18237539 259.75 594.1875 C258.59886719 594.19974609 257.44773437 594.21199219 256.26171875 594.22460938 C230.9095605 594.26748225 207.48740205 584.0053154 188.87109375 566.8984375 C177.94309426 555.81073865 169.73930111 542.17230124 161.1875 529.25 C156.68872505 522.46403274 152.00608847 515.80654345 147.34765625 509.12963867 C140.72367858 499.6260367 134.20205873 490.05449955 127.68701172 480.47607422 C123.9159903 474.94124075 120.11428506 469.4275161 116.31494141 463.91210938 C114.95039115 461.92786177 113.589994 459.94081844 112.23046875 457.953125 C111.76286133 457.27040527 111.29525391 456.58768555 110.81347656 455.88427734 C109.95106096 454.62493022 109.08958419 453.36493911 108.22949219 452.10400391 C105.14630816 447.60616814 101.98524107 443.16597229 98.81274414 438.73095703 C98.34930855 438.0826442 97.88587296 437.43433136 97.40839386 436.76637268 C96.2725004 435.17741174 95.13628281 433.58868253 94 432 C94.00037703 432.93316103 94.00075405 433.86632206 94.0011425 434.8277607 C94.00897731 457.62632867 93.98211499 480.42465973 93.9197216 503.22314644 C93.89033507 514.24874909 93.87186243 525.27416053 93.87988281 536.29980469 C93.88685201 545.91964493 93.87252873 555.53918871 93.83356392 565.15895641 C93.81368728 570.24368174 93.8038427 575.32794285 93.81957626 580.41269302 C93.91956338 616.63946246 89.97702336 647.67373053 63.4765625 674.6875 C43.24695755 694.4183611 16.37461927 704.55649086 -11.65478516 704.42407227 C-35.52198675 703.81246235 -59.43327463 694.13479433 -77 678 C-77.49097168 677.55672363 -77.98194336 677.11344727 -78.48779297 676.65673828 C-86.54862376 669.31174404 -92.63258242 661.47623211 -98 652 C-98.63808594 650.88882813 -99.27617187 649.77765625 -99.93359375 648.6328125 C-107.81829699 633.94861248 -111.16470332 618.38821636 -111.13422108 601.80619907 C-111.13657331 600.92156452 -111.13892554 600.03692997 -111.14134905 599.12548831 C-111.1479899 596.17019926 -111.14758232 593.21495467 -111.14717102 590.25965881 C-111.1504727 588.11569812 -111.1541989 585.97173805 -111.1583125 583.82777876 C-111.16830582 577.94264307 -111.17204498 572.05751758 -111.17470181 566.17237461 C-111.17861271 559.82243155 -111.1881904 553.47249651 -111.19691467 547.12255859 C-111.21572256 532.51641441 -111.22593108 517.91027049 -111.23437535 503.30411712 C-111.23858702 496.08075895 -111.24380829 488.8574016 -111.24905988 481.63404413 C-111.26694648 456.89054551 -111.28194109 432.14704664 -111.28938007 407.40354252 C-111.28985482 405.85123822 -111.29033071 404.29893392 -111.29080774 402.74662962 C-111.29104411 401.97685656 -111.29128049 401.2070835 -111.29152403 400.41398398 C-111.29272518 396.51418918 -111.29394064 392.6143944 -111.29516602 388.71459961 C-111.29540617 387.94068621 -111.29564632 387.1667728 -111.29589374 386.36940748 C-111.30378399 361.28590558 -111.32721201 336.20245101 -111.35972196 311.11896977 C-111.3940589 284.57722132 -111.41373474 258.03550055 -111.41702431 231.49372953 C-111.41744183 228.57720942 -111.41792139 225.66068933 -111.41844749 222.74416924 C-111.41857069 222.02607995 -111.41869388 221.30799067 -111.4188208 220.56814111 C-111.4211479 209.03758569 -111.43678019 197.50708548 -111.45728934 185.9765497 C-111.47759605 174.37532631 -111.48266967 162.77418436 -111.47351871 151.17294479 C-111.46898066 144.89428351 -111.47083184 138.61580063 -111.49028015 132.33716393 C-111.5079592 126.57981394 -111.50687548 120.82277189 -111.49138286 115.06541841 C-111.48901402 112.99202585 -111.49329232 110.9186117 -111.50521151 108.84525204 C-111.58985062 93.13858254 -110.21176267 77.82286636 -103.8125 63.25 C-103.51698242 62.56010986 -103.22146484 61.87021973 -102.91699219 61.15942383 C-91.80885612 36.17186127 -70.48111518 16.34777909 -45.19506836 6.25488281 C-39.24364516 3.98211392 -33.26911891 2.17663643 -27 1 C-25.95972656 0.80470703 -25.95972656 0.80470703 -24.8984375 0.60546875 C-16.71265504 -0.57973141 -8.24683124 -0.16516981 0 0 Z " fill="#A7B3A0" transform="translate(281,188)"/>
<path d="M0 0 C1.50820313 0.02513672 1.50820313 0.02513672 3.046875 0.05078125 C28.08421394 1.37851892 52.04254864 16.18597317 68.49462891 34.27148438 C73.08304853 39.54005572 77.05325162 45.24463972 81 51 C81.58040039 51.84304687 82.16080078 52.68609375 82.75878906 53.5546875 C86.61348996 59.16298604 90.43858231 64.79097602 94.25439453 70.42578125 C96.636277 73.93830834 99.03284895 77.44053119 101.4375 80.9375 C101.86579102 81.56052002 102.29408203 82.18354004 102.73535156 82.82543945 C106.71754887 88.60775842 110.73549071 94.36509352 114.75 100.125 C121.40721604 109.67823946 127.98661533 119.2822005 134.53515625 128.91015625 C138.89631778 135.32193808 143.29090487 141.71051677 147.68945312 148.09667969 C149.49934686 150.72520642 151.3072156 153.35512299 153.11499023 155.98510742 C154.03884291 157.3291152 154.96283396 158.67302787 155.88696289 160.0168457 C158.11801471 163.26118823 160.34777126 166.50640196 162.57421875 169.75390625 C167.93377249 177.56706127 173.33168193 185.35247139 178.75 193.125 C185.40731212 202.67817169 191.98661614 212.28220169 198.53515625 221.91015625 C202.89631778 228.32193808 207.29090487 234.71051677 211.68945312 241.09667969 C213.96155061 244.39646956 216.23057913 247.69836901 218.5 251 C219.41665286 252.33334282 220.33331951 253.66667617 221.25 255 C226.75 263 232.25 271 237.75 279 C238.20439453 279.6607251 238.65878906 280.3214502 239.12695312 281.00219727 C240.03791187 282.3276552 240.94807626 283.65365945 241.85742188 284.98022461 C244.22999567 288.43909339 246.61810335 291.88569552 249.03125 295.31640625 C249.77665039 296.3827832 249.77665039 296.3827832 250.53710938 297.47070312 C251.48119704 298.82066026 252.43008065 300.16728196 253.38476562 301.50976562 C256.18449945 305.52677503 258.21476999 309.43709303 260 314 C259.01 314.33 258.02 314.66 257 315 C257 315.99 257 316.98 257 318 C256.34 318 255.68 318 255 318 C255 318.99 255 319.98 255 321 C254.34 321 253.68 321 253 321 C252.71801758 321.58523438 252.43603516 322.17046875 252.14550781 322.7734375 C251.08954886 324.82594083 249.94947881 326.70501985 248.671875 328.625 C248.20942383 329.32061035 247.74697266 330.0162207 247.27050781 330.73291016 C246.76874023 331.4810498 246.26697266 332.22918945 245.75 333 C245.21987305 333.79325684 244.68974609 334.58651367 244.14355469 335.40380859 C239.6922952 342.03397907 235.11199149 348.56870676 230.50830078 355.09350586 C225.0884582 362.80590175 219.86352497 370.64290242 214.68066406 378.51611328 C210.890968 384.25152577 206.9651585 389.85276463 202.89746094 395.39428711 C200.12050148 399.20778278 197.46140968 403.09694736 194.8125 407 C193.69035119 408.64990762 192.56794775 410.29964208 191.4453125 411.94921875 C190.87844727 412.78243652 190.31158203 413.6156543 189.72753906 414.47412109 C188.01558765 416.9772089 186.28786599 419.46860471 184.5546875 421.95703125 C174.33564722 436.6546233 165.82638074 450.6222669 161 468 C160.80422363 468.67796631 160.60844727 469.35593262 160.40673828 470.05444336 C158.62270482 476.95583597 158.61621723 483.84240635 158.625 490.9375 C158.62588623 492.21987549 158.62677246 493.50225098 158.62768555 494.82348633 C158.7543963 505.04460611 160.08599303 514.23442109 163 524 C163.30808594 525.09183594 163.61617188 526.18367187 163.93359375 527.30859375 C164.58461304 529.55445456 165.26401652 531.7808983 166 534 C161.50958602 529.86583657 158.25467324 525.25090753 154.875 520.1875 C153.71896498 518.47641723 152.56271156 516.76548201 151.40625 515.0546875 C150.83261719 514.20229492 150.25898438 513.34990234 149.66796875 512.47167969 C147.25965918 508.90292587 144.81891098 505.35692439 142.375 501.8125 C141.47644594 500.50659061 140.57800804 499.20060128 139.6796875 497.89453125 C139.23850586 497.25338379 138.79732422 496.61223633 138.34277344 495.95166016 C136.06091481 492.63508236 133.78054245 489.3174829 131.5 486 C130.58334024 484.66666192 129.66667358 483.33332858 128.75 482 C123.25 474 123.25 474 121.87475586 471.99951172 C120.9590688 470.66769197 120.04321622 469.33598602 119.12719727 468.00439453 C116.8191642 464.6488222 114.51414141 461.29125262 112.21484375 457.9296875 C111.74949219 457.25035156 111.28414062 456.57101562 110.8046875 455.87109375 C109.94548512 454.61665828 109.08726509 453.36154881 108.23046875 452.10546875 C105.14699941 447.60711632 101.98558268 443.16644985 98.81274414 438.73095703 C98.34930855 438.0826442 97.88587296 437.43433136 97.40839386 436.76637268 C96.2725004 435.17741174 95.13628281 433.58868253 94 432 C94.00037703 432.93316103 94.00075405 433.86632206 94.0011425 434.8277607 C94.00897731 457.62632867 93.98211499 480.42465973 93.9197216 503.22314644 C93.89033507 514.24874909 93.87186243 525.27416053 93.87988281 536.29980469 C93.88685201 545.91964493 93.87252873 555.53918871 93.83356392 565.15895641 C93.81368728 570.24368174 93.8038427 575.32794285 93.81957626 580.41269302 C93.91956338 616.63946246 89.97702336 647.67373053 63.4765625 674.6875 C43.24695755 694.4183611 16.37461927 704.55649086 -11.65478516 704.42407227 C-35.52198675 703.81246235 -59.43327463 694.13479433 -77 678 C-77.49097168 677.55672363 -77.98194336 677.11344727 -78.48779297 676.65673828 C-86.54862376 669.31174404 -92.63258242 661.47623211 -98 652 C-98.63808594 650.88882813 -99.27617187 649.77765625 -99.93359375 648.6328125 C-107.81829699 633.94861248 -111.16470332 618.38821636 -111.13422108 601.80619907 C-111.13657331 600.92156452 -111.13892554 600.03692997 -111.14134905 599.12548831 C-111.1479899 596.17019926 -111.14758232 593.21495467 -111.14717102 590.25965881 C-111.1504727 588.11569812 -111.1541989 585.97173805 -111.1583125 583.82777876 C-111.16830582 577.94264307 -111.17204498 572.05751758 -111.17470181 566.17237461 C-111.17861271 559.82243155 -111.1881904 553.47249651 -111.19691467 547.12255859 C-111.21572256 532.51641441 -111.22593108 517.91027049 -111.23437535 503.30411712 C-111.23858702 496.08075895 -111.24380829 488.8574016 -111.24905988 481.63404413 C-111.26694648 456.89054551 -111.28194109 432.14704664 -111.28938007 407.40354252 C-111.28985482 405.85123822 -111.29033071 404.29893392 -111.29080774 402.74662962 C-111.29104411 401.97685656 -111.29128049 401.2070835 -111.29152403 400.41398398 C-111.29272518 396.51418918 -111.29394064 392.6143944 -111.29516602 388.71459961 C-111.29540617 387.94068621 -111.29564632 387.1667728 -111.29589374 386.36940748 C-111.30378399 361.28590558 -111.32721201 336.20245101 -111.35972196 311.11896977 C-111.3940589 284.57722132 -111.41373474 258.03550055 -111.41702431 231.49372953 C-111.41744183 228.57720942 -111.41792139 225.66068933 -111.41844749 222.74416924 C-111.41857069 222.02607995 -111.41869388 221.30799067 -111.4188208 220.56814111 C-111.4211479 209.03758569 -111.43678019 197.50708548 -111.45728934 185.9765497 C-111.47759605 174.37532631 -111.48266967 162.77418436 -111.47351871 151.17294479 C-111.46898066 144.89428351 -111.47083184 138.61580063 -111.49028015 132.33716393 C-111.5079592 126.57981394 -111.50687548 120.82277189 -111.49138286 115.06541841 C-111.48901402 112.99202585 -111.49329232 110.9186117 -111.50521151 108.84525204 C-111.58985062 93.13858254 -110.21176267 77.82286636 -103.8125 63.25 C-103.51698242 62.56010986 -103.22146484 61.87021973 -102.91699219 61.15942383 C-91.80885612 36.17186127 -70.48111518 16.34777909 -45.19506836 6.25488281 C-39.24364516 3.98211392 -33.26911891 2.17663643 -27 1 C-25.95972656 0.80470703 -25.95972656 0.80470703 -24.8984375 0.60546875 C-16.71265504 -0.57973141 -8.24683124 -0.16516981 0 0 Z " fill="#CDD0C2" transform="translate(281,188)"/>
<path d="M0 0 C0.33 0 0.66 0 1 0 C1.14695313 1.02996094 1.29390625 2.05992187 1.4453125 3.12109375 C4.77257849 24.87212794 13.30641427 42.61496898 26.26953125 60.24609375 C29.42883349 64.55190758 32.43207014 68.96100918 35.4375 73.375 C35.99236084 74.188479 36.54722168 75.00195801 37.11889648 75.84008789 C38.22446572 77.4611908 39.32969533 79.0825254 40.43457031 80.70410156 C47.14874635 90.55128052 53.93465677 100.34763193 60.75 110.125 C66.67279873 118.62314166 72.53249926 127.16156882 78.35449219 135.72900391 C82.85967791 142.34990413 87.41767429 148.93229526 92 155.5 C97.84156512 163.87253337 103.61753733 172.28664967 109.35546875 180.73046875 C113.86035795 187.35086148 118.41805316 193.93274609 123 200.5 C130.18634885 210.80127775 137.27068817 221.16947026 144.33496094 231.5546875 C150.40463791 240.46874682 156.5357638 249.33937895 162.70214844 258.18676758 C170.59959412 269.51792623 178.41334759 280.90271571 186.17871094 292.32470703 C189.76365337 297.59063186 193.36533403 302.84511506 196.96557617 308.10058594 C197.46806885 308.83438477 197.97056152 309.56818359 198.48828125 310.32421875 C199.14630737 311.2846106 199.14630737 311.2846106 199.81762695 312.2644043 C200.88839948 313.83618251 201.94504239 315.41756359 203 317 C203.33 279.38 203.66 241.76 204 203 C204.33 203 204.66 203 205 203 C205.06176571 231.8717577 205.06830251 260.74338034 205.03240967 289.61517334 C205.03148677 290.36267648 205.03056388 291.11017962 205.02961302 291.88033438 C205.02867785 292.63770596 205.02774268 293.39507754 205.02677917 294.17539978 C205.02583315 294.94275766 205.02488712 295.71011555 205.02391243 296.5007267 C205.02195772 298.07869024 205.0199802 299.65665375 205.01798058 301.23461723 C205.0058257 310.96917849 204.99854693 320.70372416 204.99859619 330.43829346 C204.99859495 331.41717728 204.99859371 332.3960611 204.99859244 333.40460807 C204.99859399 334.39449688 204.99859554 335.38438569 204.99859715 336.40427113 C204.99857157 357.37984639 204.97529696 378.35521359 204.91811466 399.33071613 C204.88993338 409.89416382 204.87206845 420.45741683 204.88015747 431.02090454 C204.88709905 440.15172807 204.87312419 449.28223714 204.83366424 458.41298252 C204.81391125 463.13386246 204.80366375 467.85424561 204.8195591 472.57515144 C204.92510282 507.59195412 199.99627285 537.67347798 174.4765625 563.6875 C154.24695755 583.4183611 127.37461927 593.55649086 99.34521484 593.42407227 C75.47801325 592.81246235 51.56672537 583.13479433 34 567 C33.50902832 566.55672363 33.01805664 566.11344727 32.51220703 565.65673828 C24.45137624 558.31174404 18.36741758 550.47623211 13 541 C12.36191406 539.88882813 11.72382813 538.77765625 11.06640625 537.6328125 C3.24146801 523.05991677 -0.17861605 507.55182505 -0.12304783 491.08388424 C-0.12420167 490.2293128 -0.12535552 489.37474136 -0.12654433 488.49427381 C-0.12918333 485.6414212 -0.12471132 482.78862544 -0.12025452 479.93577576 C-0.12069077 477.86560794 -0.12156669 475.79544018 -0.12284368 473.72527272 C-0.12507793 468.0448129 -0.12108198 462.36437196 -0.11606562 456.68391454 C-0.11174596 450.55518112 -0.11320862 444.42644875 -0.1139679 438.29771423 C-0.11449217 427.6819626 -0.1113904 417.06621773 -0.10573006 406.45046806 C-0.0998098 395.31867888 -0.09596346 384.18689214 -0.09487724 373.05510139 C-0.0948085 372.36254666 -0.09473976 371.66999193 -0.09466894 370.95645069 C-0.0943306 367.43920886 -0.09402922 363.92196703 -0.09374207 360.4047252 C-0.09164255 335.50248115 -0.08490768 310.6002403 -0.07543945 285.69799805 C-0.06625274 261.50821957 -0.05917024 237.31844198 -0.05493164 213.12866211 C-0.05480011 212.38281789 -0.05466859 211.63697367 -0.05453308 210.86852811 C-0.05321454 203.37834473 -0.05193873 195.88816135 -0.05069422 188.39797796 C-0.04815811 173.14007954 -0.04533686 157.88218117 -0.04234314 142.62428284 C-0.04220585 141.92277398 -0.04206856 141.22126513 -0.04192711 140.49849844 C-0.03272893 93.66566427 -0.0168632 46.83283197 0 0 Z " fill="#C0C6B6" transform="translate(170,299)"/>
<path d="M0 0 C0.33 0 0.66 0 1 0 C1.06852605 47.08603099 1.13220162 94.17206587 1.16937256 141.25813293 C1.16992479 141.95587329 1.17047702 142.65361365 1.17104598 143.37249766 C1.18301974 158.53906996 1.19410017 173.70564279 1.20426132 188.87221641 C1.20925033 196.31072577 1.21443659 203.74923499 1.21972656 211.18774414 C1.2202496 211.92793502 1.22077263 212.6681259 1.22131152 213.4307468 C1.2383336 237.389381 1.26836135 261.34797727 1.30518888 285.30658852 C1.34298908 309.9429322 1.36755793 334.57925492 1.37565996 359.2156271 C1.37681245 362.70145829 1.37811499 366.1872894 1.37950897 369.6731205 C1.37991351 370.70213536 1.37991351 370.70213536 1.38032622 371.75193839 C1.38503901 382.76076516 1.40355301 393.76952681 1.42732814 404.7783271 C1.45097654 415.86651086 1.45952513 426.95464553 1.45400551 438.04285731 C1.45145227 444.04234795 1.45527095 450.04164869 1.4768219 456.04110527 C1.49645529 461.54731244 1.49716231 467.05320411 1.48359558 472.55942658 C1.48192175 474.53825921 1.48685257 476.51711248 1.49953273 478.49590518 C1.67851479 508.18340687 -5.45621954 533.50669129 -24 557 C-24.46792969 557.63550781 -24.93585938 558.27101563 -25.41796875 558.92578125 C-38.98612815 576.41826983 -63.89826532 588.2983838 -85.22705078 591.67041016 C-105.71907597 594.10607084 -126.39418409 592.29096584 -145 583 C-145.59989746 582.70528809 -146.19979492 582.41057617 -146.81787109 582.10693359 C-171.4914023 569.79186037 -189.65087333 549.18290379 -198.71484375 523.08984375 C-203.80619897 507.50474256 -204.14037695 491.35082616 -204.33227539 475.11499023 C-204.35500077 473.44635679 -204.37798797 471.77772689 -204.4012146 470.10910034 C-204.60576952 454.97244617 -204.75334258 439.83488491 -204.88778019 424.69746304 C-204.98759323 413.52887498 -205.11395783 402.36125206 -205.2749806 391.19337505 C-205.38630773 383.31294926 -205.46660662 375.43256313 -205.52434534 367.55156475 C-205.55963026 362.85540775 -205.60850872 358.1603317 -205.69120979 353.46475029 C-205.76839403 349.04938935 -205.80695891 344.6353193 -205.81675339 340.21931076 C-205.82691536 338.60637465 -205.85071475 336.99345293 -205.88972664 335.38095665 C-206.14008249 324.60326931 -204.34086352 318.29237718 -197 310 C-195.80612227 308.26844951 -194.63605252 306.52002706 -193.5 304.75 C-188.80967886 297.64513484 -183.92609381 290.67715859 -179.05664062 283.69433594 C-175.18548681 278.1423336 -171.32595052 272.58324411 -167.5 267 C-159.69460839 255.61750724 -151.78580261 244.30650993 -143.89746094 232.98144531 C-136.93209749 222.9803145 -129.97063888 212.97742487 -123.08081055 202.92407227 C-118.82511052 196.7244988 -114.50459416 190.57076631 -110.18652344 184.41455078 C-106.19762453 178.7231262 -102.24330963 173.00952916 -98.31542969 167.27587891 C-94.32339329 161.45475878 -90.28712744 155.66490678 -86.25 149.875 C-78.98289555 139.44704615 -71.81373191 128.95463605 -64.66503906 118.4453125 C-57.88112935 108.48231548 -51.01422954 98.5778735 -44.125 88.6875 C-37.02970085 78.49459501 -29.9458914 68.29552398 -23 58 C-22.4956543 57.25492187 -21.99130859 56.50984375 -21.47167969 55.7421875 C-13.43439388 43.81354611 -7.05004649 32.08960135 -2.76171875 18.265625 C-2 16 -2 16 -1 15 C-0.76346477 12.47403741 -0.57826308 9.96892793 -0.4375 7.4375 C-0.37272461 6.37112305 -0.37272461 6.37112305 -0.30664062 5.28320312 C-0.20028223 3.52238088 -0.09961154 1.7612168 0 0 Z " fill="#92A28E" transform="translate(911,299)"/>
<path d="M0 0 C0.83402344 0.76183594 1.66804687 1.52367187 2.52734375 2.30859375 C3.03507324 2.76862793 3.54280273 3.22866211 4.06591797 3.70263672 C12.44670243 11.38688819 18.95785877 19.4057508 24.52734375 29.30859375 C25.16414062 30.41847656 25.8009375 31.52835938 26.45703125 32.671875 C32.74307861 44.36716054 37.27240612 57.93417348 37.52734375 71.30859375 C37.55441406 72.57960938 37.58148437 73.850625 37.609375 75.16015625 C37.66912093 79.54520614 37.61991335 83.92434012 37.52734375 88.30859375 C37.51477539 88.99244141 37.50220703 89.67628906 37.48925781 90.38085938 C37.28561607 98.91718868 36.16932837 105.61859244 32.52734375 113.30859375 C31.7750142 115.22434722 31.02515235 117.14107102 30.27734375 119.05859375 C25.24544237 130.99225716 18.23869815 141.38156822 10.71875 151.84375 C7.49914888 156.32520641 4.38059713 160.87108093 1.27734375 165.43359375 C-3.55498307 172.52626133 -8.43739813 179.58216917 -13.34765625 186.62109375 C-20.57444788 196.98566293 -27.70113575 207.41601288 -34.80761719 217.86328125 C-42.32079777 228.89730129 -49.93600999 239.85979611 -57.56567383 250.81347656 C-61.42852333 256.36159108 -65.27646352 261.91921787 -69.09765625 267.49609375 C-73.78000447 274.32864418 -78.52972962 281.11290272 -83.28613281 287.89404297 C-86.83165694 292.95285334 -90.35541929 298.02536598 -93.84765625 303.12109375 C-101.69307391 314.56725586 -109.64390366 325.94042178 -117.57519531 337.32714844 C-124.48922189 347.25456784 -131.40087774 357.18286024 -138.24243164 367.16040039 C-144.30992852 375.99953981 -150.4337698 384.80046796 -156.58007812 393.58496094 C-157.88081598 395.45686903 -159.16787627 397.33833242 -160.44335938 399.22753906 C-161.06662109 400.14374023 -161.68988281 401.05994141 -162.33203125 402.00390625 C-162.88858398 402.83164551 -163.44513672 403.65938477 -164.01855469 404.51220703 C-164.4984082 405.10501465 -164.97826172 405.69782227 -165.47265625 406.30859375 C-166.13265625 406.30859375 -166.79265625 406.30859375 -167.47265625 406.30859375 C-167.54138121 363.50473058 -167.59421489 320.70087379 -167.62585224 277.89696633 C-167.62960418 272.83910702 -167.63348717 267.78124782 -167.63745117 262.72338867 C-167.6382381 261.71649554 -167.63902503 260.7096024 -167.63983581 259.67219735 C-167.65287588 243.38666723 -167.676522 227.10116901 -167.70411464 210.81565779 C-167.7322078 194.09479385 -167.74884077 177.37394658 -167.75492173 160.65306002 C-167.75903007 150.34236128 -167.77198769 140.03175271 -167.79640565 129.72108174 C-167.81231115 122.64261955 -167.81704575 115.56420372 -167.81316038 108.48572498 C-167.81124631 104.40694324 -167.81409951 100.32831864 -167.83027267 96.24956512 C-167.84501006 92.50529188 -167.84552031 88.76127954 -167.83535293 85.01699359 C-167.83351078 83.04175503 -167.84632489 81.06651895 -167.85990018 79.09132618 C-167.7902726 65.01865259 -164.61328152 52.35537054 -159.47265625 39.30859375 C-159.1890625 38.52226562 -158.90546875 37.7359375 -158.61328125 36.92578125 C-150.17347665 15.34854495 -128.93533945 -4.27526516 -108.18359375 -13.70703125 C-72.84795181 -28.99112976 -30.05721948 -25.65616238 0 0 Z " fill="#ECE8DE" transform="translate(874.47265625,210.69140625)"/>
<path d="M0 0 C3.37950062 3.22271966 6.10395542 6.38655612 8.625 10.3125 C9.31851563 11.3746875 10.01203125 12.436875 10.7265625 13.53125 C11.09555664 14.09714844 11.46455078 14.66304687 11.84472656 15.24609375 C13.85437479 18.29708971 15.92695189 21.30436837 18 24.3125 C18.6801416 25.30056641 18.6801416 25.30056641 19.37402344 26.30859375 C24.20975106 33.32219465 29.08518655 40.30820086 33.95507812 47.2980957 C38.69444227 54.10673605 43.39191129 60.94253597 48.06591797 67.79614258 C52.34085597 74.0562951 56.66526778 80.28113847 61 86.5 C67.57318992 95.93683557 74.14032576 105.37699755 80.58203125 114.90429688 C81.49538598 116.25419994 82.41181864 117.60202813 83.33203125 118.94726562 C98.86239136 141.71390807 106.283745 168.76340145 101.63183594 196.16894531 C98.74629804 211.13223347 94.20047644 224.68683901 85 237 C84.38253906 237.84046875 83.76507812 238.6809375 83.12890625 239.546875 C68.79381956 258.26295492 51.15883275 270.60777103 28.6875 277.8125 C28.04176025 278.01979736 27.39602051 278.22709473 26.73071289 278.44067383 C17.77801822 281.15892701 9.02553728 281.18237539 -0.25 281.1875 C-1.40113281 281.19974609 -2.55226563 281.21199219 -3.73828125 281.22460938 C-29.0904395 281.26748225 -52.51259795 271.0053154 -71.12890625 253.8984375 C-77.9464025 246.98131187 -83.47125458 239.07573996 -89 231.125 C-89.57645264 230.30418945 -90.15290527 229.48337891 -90.74682617 228.63769531 C-91.28412354 227.85233398 -91.8214209 227.06697266 -92.375 226.2578125 C-92.85710937 225.5580127 -93.33921875 224.85821289 -93.8359375 224.13720703 C-95.13892036 221.74494362 -95.56558016 219.67734545 -96 217 C-96.94955861 213.90057494 -97.95475966 210.82236788 -98.96484375 207.7421875 C-104.57220094 187.47106226 -104.27345569 164.77259469 -97 145 C-96.77538086 144.36610352 -96.55076172 143.73220703 -96.31933594 143.07910156 C-92.87216863 133.5605042 -87.7161155 125.27954747 -82 117 C-81.41895508 116.15759766 -80.83791016 115.31519531 -80.23925781 114.44726562 C-76.86288476 109.56398205 -73.46921079 104.69301937 -70.06640625 99.828125 C-66.40818599 94.59446681 -62.78724436 89.33650612 -59.1875 84.0625 C-58.65801758 83.28688721 -58.12853516 82.51127441 -57.58300781 81.7121582 C-56.54923846 80.19764434 -55.51554495 78.68307872 -54.48193359 77.16845703 C-51.71636111 73.12170006 -48.93563369 69.08537271 -46.15625 65.0480957 C-43.73661116 61.53151325 -41.32314498 58.01086821 -38.91796875 54.484375 C-32.64426057 45.28835157 -26.31648225 36.13455099 -19.90600586 27.03320312 C-15.95462505 21.40997658 -12.1392065 15.72344676 -8.453125 9.921875 C-7.97359375 9.28765625 -7.4940625 8.6534375 -7 8 C-6.34 8 -5.68 8 -5 8 C-5 7.01 -5 6.02 -5 5 C-4.34 5 -3.68 5 -3 5 C-3 4.01 -3 3.02 -3 2 C-2.01 1.34 -1.02 0.68 0 0 Z " fill="#AEB8A7" transform="translate(541,501)"/>
</svg>
